<?xml version="1.0" encoding="UTF-8"?>
<svg id="Layer_1" data-name="Layer 1" xmlns="http://www.w3.org/2000/svg" xmlns:xlink="http://www.w3.org/1999/xlink" viewBox="0 0 1080 1080">
  <defs>
    <style>
      .cls-1 {
        fill: url(#linear-gradient);
      }

      .cls-1, .cls-2, .cls-3, .cls-4 {
        stroke-width: 0px;
      }

      .cls-2 {
        fill: #0f1929;
      }

      .cls-5 {
        fill: none;
        stroke: #fff;
        stroke-miterlimit: 10;
      }

      .cls-3 {
        fill: url(#linear-gradient-2);
      }

      .cls-4 {
        fill: url(#linear-gradient-3);
      }
    </style>
    <linearGradient id="linear-gradient" x1="-748.7" y1="8729.89" x2="-605.59" y2="8729.89" gradientTransform="translate(1695.37 -2386.85) scale(1.49 .34)" gradientUnits="userSpaceOnUse">
      <stop offset="0" stop-color="#206eb6"/>
      <stop offset="1" stop-color="#36aee4"/>
    </linearGradient>
    <linearGradient id="linear-gradient-2" x1="426.19" y1="567.6" x2="530.24" y2="567.6" gradientTransform="matrix(1,0,0,1,0,0)" xlink:href="#linear-gradient"/>
    <linearGradient id="linear-gradient-3" x1="241.13" y1="540" x2="838.87" y2="540" gradientTransform="matrix(1,0,0,1,0,0)" xlink:href="#linear-gradient"/>
  </defs>
  <rect class="cls-2" width="1080" height="1080"/>
  <g>
    <rect class="cls-1" x="577.17" y="577.39" width="213.74" height="25.84" rx="12.92" ry="12.92" transform="translate(1029.26 1425.3) rotate(-153.26)"/>
    <path class="cls-3" d="M426.19,460.06v214.6c.86.29,24.65-.1,33.72.45,4.81.29,7.3-.86,8.45-3.59v-101.77h61.78c0-13.6.45-23.96-.48-40.61-20.56.04-53.79-1.37-61.3-1.39v-67.69h-42.16Z"/>
    <path class="cls-4" d="M584.69,569.74c29.83,58.84,59.66,117.69,89.49,176.53.06.13.12.25.17.38.97,2.31,10.83,25.62,18.32,36.12,1.21,1.71,2.5,3.4,3.83,5.07.02.02.05.05.07.07,2.81,3.43,4.28,3.57,7.14,1.38,9.52-7.33,18.99-14.7,28.17-22.41,10.87-9.09,21.39-18.65,31.19-29.03,32.1-33.98,54.87-74.1,64.55-119,13.27-61.5,11.12-93.02,11.12-93.02-.62-17.44-4.41-36.13-6.88-47.7-12.18-57.03-39.05-105.98-80.31-147.43-23.1-23.2-48.73-41.71-78.19-56.65-33.48-16.99-87.8-29.6-106.27-31.58-16.37-1.76-33.26-3.28-60.68-.31-1.62.19-26.65,2.95-37.5,5.38-6.9,1.57-35.55,10.4-42.73,13.25-18.82,7.54-37.02,16.56-53.97,27.93-19.06,12.78-36.41,27.48-52.44,44.16-9.57,9.97-17.5,21.08-26.06,31.71-3.07,3.81-.48,9.49,4.41,9.65,15.95.52,42.9,1.29,51.43,1.5,1.68.04,3.28-.65,4.42-1.89,5.57-6.05,11.31-11.85,17.29-17.36.12-.12.24-.21.36-.33,14.87-13.63,31.15-25.48,49.4-34.69,1.71-.88,3.45-1.71,5.16-2.55,13.78-6.64,27.82-11.97,42.16-15.97,23.18-6.47,47.14-9.47,72.05-8.8.24,0,.45,0,.67.02,1.62.05,3.24.12,4.88.19.98.05,1.95.12,2.93.17,27.96,1.64,54.18,7.97,79.73,17.7,6.19,2.33,12.35,4.9,18.46,7.64,19.65,8.78,31.5,17.49,49.09,29.01,63.26,41.74,80.4,132.82,83.9,149.31,4,18.8,3.45,66.79-2.47,94.92-1.29,6.19-3,12.28-4.66,18.35-2.5,9.3-5.23,18.54-8.21,27.74-4.88,15.04-12.59,28.91-20.89,42.14-5.21,8.26-21.46,24.07-30.31,32.45-2.88,2.73-7.57,1.91-9.36-1.62-11.93-23.51-50.79-100.1-72.18-142.33-1.52-3.01-.24-6.7,2.84-8.08,66.54-29.82,66.88-60.83,67.86-68.04.21-1.56.38-3.14.43-4.71.27-9.1-.94-13.73-7.08-29.21-.09-.24-.2-.47-.31-.7-11.98-23.65-36.19-36.02-65.4-40.61-.33-.05-.68-.08-1.01-.08h-203.1c-35.12.05-70.26.07-105.41.09l-50.86-.09c-2.49,0-4.71,1.56-5.57,3.89-6.87,18.53-14.97,36.53-17.71,56.68-1.55,11.42-10.4,50.18-1.83,116.19,3.33,25.58,10.66,49.42,19.68,72.62,16.39,42.07,44.83,75.97,79.66,104.6,46.71,38.36,99.65,66.05,160.23,66.93,37.81.55,61.72.29,92.54-6.59,18.68-4.16,36.74-9.52,54.77-15.47,5.09-1.69,8.04-4.12,6.85-8.97-.19-.95-.57-1.97-1.12-3.12-5.26-10.92-9.71-22.25-14.7-33.29-1.02-2.26-3.02-4.97-5.26-4.81-.64.02-44.88,17.66-77.81,19.68-1.76.43-63.37,7.49-98.01-9.07-.56-.27-1.21-.33-1.81-.5-7.04-2.02-13.8-4.57-20.34-7.52-.09-.05-.19-.1-.29-.12-20.49-9.3-38.88-22.44-57.84-34.98-1.5-1-2.95-2-4.38-3.07-9.26-6.76-4.28-3.31-24.15-23.06-.05-.05-.07-.07-.09-.12-6.28-7.5-11.68-15.56-17.49-23.2-28.77-37.86-40.35-105.03-40.47-105.96-8.99-75.93,7.95-102.65,10.66-115.36,1.29-2.64,3.24-3.26,5.28-3.26h218.62l.21.43c5.51,10.87,11.03,21.74,16.54,32.61,12.86,25.38,25.73,50.75,38.59,76.13ZM581.43,470.02l-.41-.81c-2-3.96.87-8.64,5.31-8.64h12.64c10.14.28,62.52,7.18,62.52,27.05,0,9.23-2.63,18.69-45.7,37.7-2.89,1.28-6.29.07-7.72-2.75l-26.64-52.56Z"/>
    <path class="cls-5" d="M446.31,439.9v234.91"/>
    <path class="cls-5" d="M529.37,548.08h-80.78"/>
    <path class="cls-5" d="M645.49,789.19c-10.65,4.56-137,56.11-256.42-20.16-9.3-5.94-115.72-76.23-124.99-205.62-4.02-56.1,11.84-100.83,22.58-124.99l332.41-1.48c26.97,0,51.67,17.2,59.04,43.14,3.53,12.43.44,25.53-10.05,37.36-9.88,11.15-28.1,27.75-43.17,32.43-5.09,1.58-5.86,8.44-1.22,11.06,47.6,26.96,124.55,62.75,172.15,89.71,41.87-99.07,4.75-236.96-54.38-304.69-82.23-90.34-243.85-98.73-345.12-41.93-40.07,22.47-63.49,49.68-77.64,68.63"/>
  </g>
</svg>